<svg width="80.000000" height="80.000000" viewBox="0 0 80 80" fill="none" xmlns="http://www.w3.org/2000/svg" xmlns:xlink="http://www.w3.org/1999/xlink">
	<desc>
			Created with Pixso.
	</desc>
	<defs>
		<clipPath id="clip5_105">
			<rect id="laptop-code" width="80.000000" height="80.000000" fill="white" fill-opacity="0"/>
		</clipPath>
	</defs>
	<rect id="laptop-code" width="80.000000" height="80.000000" fill="#000000" fill-opacity="0"/>
	<g clip-path="url(#clip5_105)">
		<path id="Vector" d="M31.87 40.7C32.66 41.48 33.92 41.48 34.7 40.7L36.12 39.29C36.9 38.51 36.9 37.24 36.12 36.46L31.65 32L36.12 27.53C36.9 26.75 36.9 25.48 36.12 24.7L34.7 23.29C33.92 22.51 32.65 22.51 31.87 23.29L24.58 30.58C23.8 31.36 23.8 32.63 24.58 33.41L31.87 40.7ZM43.88 39.29L45.29 40.7C46.07 41.48 47.34 41.48 48.12 40.7L55.41 33.41C56.19 32.63 56.19 31.36 55.41 30.58L48.12 23.29C47.34 22.51 46.07 22.51 45.29 23.29L43.88 24.7C43.09 25.48 43.09 26.75 43.88 27.53L48.34 32L43.88 36.46C43.09 37.24 43.09 38.51 43.88 39.29ZM78 60L47.69 60C47.6 62.47 45.85 64 43.6 64L36 64C33.66 64 31.87 61.81 31.9 60L2 60C0.9 60 0 60.89 0 62L0 64C0 68.39 3.59 72 8 72L72 72C76.4 72 80 68.39 80 64L80 62C80 60.89 79.1 60 78 60ZM72 14C72 10.7 69.3 8 66 8L14 8C10.7 8 8 10.7 8 14L8 56L72 56L72 14ZM64 48L16 48L16 16L64 16L64 48Z" fill="#F86F03" fill-opacity="1.000000" fill-rule="nonzero"/>
	</g>
</svg>
